<?xml version="1.0" encoding="UTF-8" standalone="no"?>
<svg
   xmlns:dc="http://purl.org/dc/elements/1.1/"
   xmlns:cc="http://creativecommons.org/ns#"
   xmlns:rdf="http://www.w3.org/1999/02/22-rdf-syntax-ns#"
   xmlns:svg="http://www.w3.org/2000/svg"
   xmlns="http://www.w3.org/2000/svg"
   id="svg8"
   version="1.1"
   viewBox="0 0 529.16665 529.16668"
   height="2000"
   width="2000">
  <defs
     id="defs2" />
  <metadata
     id="metadata5">
    <rdf:RDF>
      <cc:Work
         rdf:about="">
        <dc:format>image/svg+xml</dc:format>
        <dc:type
           rdf:resource="http://purl.org/dc/dcmitype/StillImage" />
        <dc:title></dc:title>
      </cc:Work>
    </rdf:RDF>
  </metadata>
  <g
     transform="translate(0,232.16668)"
     id="layer1">
    <path
       id="path22"
       d="M 264.58333,-73.416687 H 52.916666 V 138.24998 H 264.58333 v 0"
       style="fill:none;stroke:#8f9ba6;stroke-width:39.6875;stroke-linecap:butt;stroke-linejoin:miter;stroke-miterlimit:4;stroke-dasharray:none;stroke-opacity:1" />
    <path
       id="path829"
       d="m 396.875,-73.416687 h 66.14583 V 138.24998 H 396.875 v 0"
       style="fill:none;stroke:#8f9ba6;stroke-width:39.6875;stroke-linecap:butt;stroke-linejoin:miter;stroke-miterlimit:4;stroke-dasharray:none;stroke-opacity:1" />
    <g
       id="flowRoot831"
       style="font-style:normal;font-weight:normal;font-size:933.33331299px;line-height:1.25;font-family:sans-serif;letter-spacing:0px;word-spacing:0px;fill:#8f9ba6;fill-opacity:1;stroke:none"
       transform="matrix(0.50966749,0,0,0.49640918,-233.43005,-435.20172)"
       aria-label="I">
      <path
         id="path17"
         style="font-style:normal;font-variant:normal;font-weight:normal;font-stretch:normal;font-size:933.33331299px;font-family:'Droid Serif';-inkscape-font-specification:'Droid Serif';fill:#8f9ba6;fill-opacity:1"
         d="m 1035.5469,1273.7719 v -39.1927 h 11.8489 q 15.9506,0 29.6224,-2.2787 14.1276,-2.2786 24.6094,-9.1146 10.4818,-7.2916 16.4063,-20.5078 5.9244,-13.2161 5.9244,-35.0911 V 713.68072 q 0,-21.875 -5.9244,-35.09114 -5.9245,-13.21615 -16.4063,-20.05208 -10.4818,-7.29167 -24.6094,-9.57032 -13.6718,-2.27864 -29.6224,-2.27864 h -11.8489 v -39.19271 h 271.6146 v 39.19271 h -12.3047 q -15.4948,0 -29.6224,2.27864 -14.1276,2.27865 -24.6094,9.57032 -10.026,6.83593 -16.4063,20.05208 -5.9244,13.21614 -5.9244,35.09114 V 1167.587 q 0,21.875 5.9244,35.0911 6.3803,13.2162 16.4063,20.5078 10.4818,6.836 24.6094,9.1146 14.1276,2.2787 29.6224,2.2787 h 12.3047 v 39.1927 z" />
    </g>
    <path
       id="path13"
       d="M 264.58436,-53.571898 V 118.4052 H 72.760416 V -53.574999 Z"
       style="fill:#a2d32f;fill-opacity:1;stroke:none;stroke-width:0.26458332px;stroke-linecap:butt;stroke-linejoin:miter;stroke-opacity:1" />
  </g>
</svg>
